<svg id="ePchjBxHEdo1" xmlns="http://www.w3.org/2000/svg" xmlns:xlink="http://www.w3.org/1999/xlink" viewBox="0 0 36 36" shape-rendering="geometricPrecision" text-rendering="geometricPrecision"><defs><linearGradient id="ePchjBxHEdo2-fill" x1="16" y1="32" x2="16" y2="24" spreadMethod="pad" gradientUnits="userSpaceOnUse" gradientTransform="translate(0 0)"><stop id="ePchjBxHEdo2-fill-0" offset="0%" stop-color="#000"/><stop id="ePchjBxHEdo2-fill-1" offset="100%" stop-color="rgba(0,0,0,0)"/></linearGradient></defs><path d="M18,28c-1.854353-.036802-3.631812-.747786-5-2-1.4,2.1-.35,4.35.6,5.55.14.17.41.07.47-.15.44-1.8,2.93-1.22,2.93.6c0,2.28.87,3.4,1.72,3.81.34.16.59-.2.49-.56-.31-1.05-.29-2.46,1.29-3.25c3-1.5,3.17-4.83,2.5-6-.67.67-2.6,2-5,2Z" transform="matrix(.058403 0.997766-1.017244 0.059543 41.368331-2.944098)" opacity="0.77" fill="url(#ePchjBxHEdo2-fill)"/><path d="M22.25,4h-8.5c-.447238.00128-.839247.29937-.96.73L7.25,24.13c-.051119.175265-.002648.364459.126447.493553s.318288.177566.493553.126447l5.05-1.44c.673429-.192799,1.19691-.723867,1.38-1.4l3.22-11.66c.062222-.213333.257778-.36.48-.36s.417778.146667.48.36L21.7,21.92c.186114.672292.70907,1.199037,1.38,1.39l5.05,1.44c.175265.051119.364459.002648.493553-.126447s.177566-.318288.126447-.493553L23.21,4.73c-.120753-.43063-.512762-.72872-.96-.73Z" transform="matrix(-.508558-.823459 0.366822-.226544 22.53154 35.511407)" fill="#5e5e5e"/><path d="M22.25,4h-8.5c-.447238.00128-.839247.29937-.96.73L7.25,24.13c-.051119.175265-.002648.364459.126447.493553s.318288.177566.493553.126447l5.05-1.44c.673429-.192799,1.19691-.723867,1.38-1.4l3.22-11.66c.062222-.213333.257778-.36.48-.36s.417778.146667.48.36L21.7,21.92c.186114.672292.70907,1.199037,1.38,1.39l5.05,1.44c.175265.051119.364459.002648.493553-.126447s.177566-.318288.126447-.493553L23.21,4.73c-.120753-.43063-.512762-.72872-.96-.73Z" transform="matrix(-.506253-.824878 0.367454-.225518 24.937144 36.656961)" fill="#070707"/></svg>
