<svg id="eKREHzv6boG1" xmlns="http://www.w3.org/2000/svg" xmlns:xlink="http://www.w3.org/1999/xlink" viewBox="0 0 300 300" shape-rendering="geometricPrecision" text-rendering="geometricPrecision"><ellipse rx="61.768119" ry="76.712019" transform="matrix(.359188 0 0 0.378237 150 79.534977)" opacity="0.9" stroke="#fff"/><ellipse rx="29.460831" ry="10.247246" transform="matrix(1.222116-.705589 0.705589 1.222116 96.517857 121.073625)" opacity="0.9" stroke="#fff"/><ellipse rx="29.460831" ry="10.247246" transform="matrix(0 1-.720027 0 150 227.304621)" opacity="0.9" stroke="#fff"/><ellipse rx="29.460831" ry="10.247246" transform="matrix(.866025-.5 0.5 0.866025 97.176181 203.69983)" opacity="0.9" stroke="#fff"/><ellipse rx="29.460831" ry="10.247246" transform="matrix(.866025 0.5-.5 0.866025 202.823819 203.69983)" opacity="0.9" stroke="#fff"/><ellipse rx="29.460831" ry="10.247246" transform="matrix(1.222116 0.705589-.705589 1.222116 203.482143 121.073625)" opacity="0.9" stroke="#fff"/><ellipse rx="61.768119" ry="76.712019" transform="translate(150 164.475082)" stroke="#fff"/><polygon points="0,-35.151528 33.43109,-10.86242 20.66155,28.438184 -20.66155,28.438184 -33.43109,-10.86242 0,-35.151528" transform="translate(150 160.531231)" stroke="#fff"/><line x1="0" y1="-18.886736" x2="0" y2="18.886737" transform="translate(150 106.492967)" fill="#f00" stroke="#fff"/><line x1="-12.549389" y1="3.74207" x2="13.147793" y2="-3.670579" transform="translate(195.689266 145.930432)" fill="none" stroke="#fff"/><line x1="-12.549389" y1="3.74207" x2="13.147793" y2="-3.670579" transform="matrix(-1 0 0 1 103.937148 145.765707)" fill="none" stroke="#fff"/><line x1="12.848591" y1="-12.848591" x2="-12.024964" y2="14.660572" transform="translate(116.426039 201.890494)" fill="none" stroke="#fff"/><line x1="12.848591" y1="-12.848591" x2="-12.024964" y2="14.660572" transform="matrix(-1 0 0 1 183.634054 202.219945)" fill="none" stroke="#fff"/></svg>
